<?xml version="1.0" encoding="UTF-8" standalone="no"?>
<!DOCTYPE svg PUBLIC "-//W3C//DTD SVG 1.1//EN"
 "http://www.w3.org/Graphics/SVG/1.1/DTD/svg11.dtd">
<!-- Generated by graphviz version 2.43.0 (0)
 -->
<!-- Title: pipeline Pages: 1 -->
<svg width="1417pt" height="275pt"
 viewBox="0.00 0.00 1417.20 275.20" xmlns="http://www.w3.org/2000/svg" xmlns:xlink="http://www.w3.org/1999/xlink" xmlns:c2pa="http://c2pa.org/manifest"><metadata><c2pa:manifest>AAAWgmp1bWIAAAAeanVtZGMycGEAEQAQgAAAqgA4m3EDYzJwYQAAABZcanVtYgAAAEdqdW1kYzJtYQARABCAAACqADibcQN1cm46YzJwYToyYjY0MTVmOC04Y2RhLTRmZmMtYjFlMi01OTFlYjVmNjI1ZDcAAAADl2p1bWIAAAApanVtZGMyYXMAEQAQgAAAqgA4m3EDYzJwYS5hc3NlcnRpb25zAAAAALxqdW1iAAAARGp1bWRjYm9yABEAEIAAAKoAOJtxE2MycGEuaW5ncmVkaWVudC52MwAAAAAYYzJzaD6GApnP03MKhQlUFr4FSzIAAABwY2JvcqNpZGM6Zm9ybWF0bWltYWdlL3N2Zyt4bWxqaW5zdGFuY2VJRHgseG1wOmlpZDo5ZmQ5ODI1NC0yYzJlLTQwMGMtYjJiZC00NDU5ZDdiZGY0ZGVscmVsYXRpb25zaGlwaHBhcmVudE9mAAAB4mp1bWIAAABBanVtZGNib3IAEQAQgAAAqgA4m3ETYzJwYS5hY3Rpb25zLnYyAAAAABhjMnNodVW3+wBjKP48gfhPOBxBzAAAAZljYm9yomdhY3Rpb25zgqJmYWN0aW9ua2MycGEub3BlbmVkanBhcmFtZXRlcnOha2luZ3JlZGllbnRzgaJjdXJseC1zZWxmI2p1bWJmPWMycGEuYXNzZXJ0aW9ucy9jMnBhLmluZ3JlZGllbnQudjNkaGFzaFggPLn1jBPS2cN45F1gVDV+qvnpmQVSjM7HZJgpD2EatCKkZmFjdGlvbngdY29tLmFudGhyb3BpYy5jbGF1ZGUucHJvdmlkZWRqcGFyYW1ldGVyc6F4H2NvbS5hbnRocm9waWMub3JpZ2luLWNvbmZpZGVuY2VndW5rbm93bmtkZXNjcmlwdGlvbnhmQ2xhdWRlIHByb3ZpZGVkIHRoaXMgZmlsZSBhdCB0aGUgcmVxdWVzdCBvZiBhIHVzZXIgYW5kIG1heSBoYXZlIGNyZWF0ZWQgb3IgbW9kaWZpZWQgdGhlIGZpbGUgY29udGVudHMubXNvZnR3YXJlQWdlbnShZG5hbWVmQ2xhdWRlcmFsbEFjdGlvbnNJbmNsdWRlZPUAAADIanVtYgAAAEBqdW1kY2JvcgARABCAAACqADibcRNjMnBhLmhhc2guZGF0YQAAAAAYYzJzaALNcYTiwPBChIds3aSnYe0AAACAY2JvcqVjYWxnZnNoYTI1NmNwYWRMAAAAAAAAAAAAAAAAZGhhc2hYIA3W2xYIlU9PaCRviOU8XKtSDhxD7p77CqY4K5AryYUCZG5hbWVuanVtYmYgbWFuaWZlc3RqZXhjbHVzaW9uc4GiZXN0YXJ0GQHEZmxlbmd0aBkeBAAAAj5qdW1iAAAAJ2p1bWRjMmNsABEAEIAAAKoAOJtxA2MycGEuY2xhaW0udjIAAAACD2Nib3KlY2FsZ2ZzaGEyNTZpc2lnbmF0dXJleE1zZWxmI2p1bWJmPS9jMnBhL3VybjpjMnBhOjJiNjQxNWY4LThjZGEtNGZmYy1iMWUyLTU5MWViNWY2MjVkNy9jMnBhLnNpZ25hdHVyZWppbnN0YW5jZUlEeCx4bXA6aWlkOjU5ZTRiMThlLWFkYWEtNDU1NS05Njg1LTlkMGU4NzIyMDBiNnJjcmVhdGVkX2Fzc2VydGlvbnODomN1cmx4LXNlbGYjanVtYmY9YzJwYS5hc3NlcnRpb25zL2MycGEuaW5ncmVkaWVudC52M2RoYXNoWCA8ufWME9LZw3jkXWBUNX6q+emZBVKMzsdkmCkPYRq0IqJjdXJseCpzZWxmI2p1bWJmPWMycGEuYXNzZXJ0aW9ucy9jMnBhLmFjdGlvbnMudjJkaGFzaFgg7C5rOgVGJHtAOmQHJAj3SMcO+04HQx8+SKKk3NncdqGiY3VybHgpc2VsZiNqdW1iZj1jMnBhLmFzc2VydGlvbnMvYzJwYS5oYXNoLmRhdGFkaGFzaFggEcXRS9ot8V4u2C0dueIZ5Ky421tEgyR9suz7w8D2Ofx0Y2xhaW1fZ2VuZXJhdG9yX2luZm+jZG5hbWVvQW50aHJvcGljIEZpbGVzZ3ZlcnNpb25lMS4wLjBrc3BlY1ZlcnNpb25lMi40LjAAABA4anVtYgAAAChqdW1kYzJjcwARABCAAACqADibcQNjMnBhLnNpZ25hdHVyZQAAABAIY2JvctKEWQISogEmGCFZAgowggIGMIIBjaADAgECAhRA5aAK7sI50L64g/oGQgU9Z1UTADAKBggqhkjOPQQDAzBJMRcwFQYDVQQKEw5BbnRocm9waWMsIFBCQzEuMCwGA1UEAxMlQW50aHJvcGljIENvbnRlbnQgQ3JlZGVudGlhbHMgUm9vdCBDQTAeFw0yNjA4MDcxODQzNTZaFw0yODA4MDYxOTQzNTZaMEQxFzAVBgNVBAoTDkFudGhyb3BpYywgUEJDMSkwJwYDVQQDEyBBbnRocm9waWMgQ2xhdWRlIENvbnRlbnQgU2lnbmluZzBZMBMGByqGSM49AgEGCCqGSM49AwEHA0IABJh6CmvLUBgFFNU0vUKlOVtE6djd17L5SuwX0LemFisBM3dkd/3cyjxFA3Qo5S46fX0/ihY0VZ7mfb9KF703t5OjWDBWMA4GA1UdDwEB/wQEAwIHgDAVBgNVHSUEDjAMBgorBgEEAYPoXgIBMAwGA1UdEwEB/wQCMAAwHwYDVR0jBBgwFoAUzlHiBIFOZFsj+OPEz5o+nMHXXMIwCgYIKoZIzj0EAwMDZwAwZAIwMXMdFJ4BetLLVY7ORuE9noqbbAZOZn/aArXyTwFAZfKrPzxF2vPoJNf1+UCdg1XGAjBwX1zd9WGqYkqmL5SFqw1QySjr1zJfpJM9+1rdDwSPLMOPOjKuiXjoU/pUUeG9RwmhY3BhZFkNngAAAAAAAAAAAAAAAAAAAAAAAAAAAAAAAAAAAAAAAAAAAAAAAAAAAAAAAAAAAAAAAAAAAAAAAAAAAAAAAAAAAAAAAAAAAAAAAAAAAAAAAAAAAAAAAAAAAAAAAAAAAAAAAAAAAAAAAAAAAAAAAAAAAAAAAAAAAAAAAAAAAAAAAAAAAAAAAAAAAAAAAAAAAAAAAAAAAAAAAAAAAAAAAAAAAAAAAAAAAAAAAAAAAAAAAAAAAAAAAAAAAAAAAAAAAAAAAAAAAAAAAAAAAAAAAAAAAAAAAAAAAAAAAAAAAAAAAAAAAAAAAAAAAAAAAAAAAAAAAAAAAAAAAAAAAAAAAAAAAAAAAAAAAAAAAAAAAAAAAAAAAAAAAAAAAAAAAAAAAAAAAAAAAAAAAAAAAAAAAAAAAAAAAAAAAAAAAAAAAAAAAAAAAAAAAAAAAAAAAAAAAAAAAAAAAAAAAAAAAAAAAAAAAAAAAAAAAAAAAAAAAAAAAAAAAAAAAAAAAAAAAAAAAAAAAAAAAAAAAAAAAAAAAAAAAAAAAAAAAAAAAAAAAAAAAAAAAAAAAAAAAAAAAAAAAAAAAAAAAAAAAAAAAAAAAAAAAAAAAAAAAAAAAAAAAAAAAAAAAAAAAAAAAAAAAAAAAAAAAAAAAAAAAAAAAAAAAAAAAAAAAAAAAAAAAAAAAAAAAAAAAAAAAAAAAAAAAAAAAAAAAAAAAAAAAAAAAAAAAAAAAAAAAAAAAAAAAAAAAAAAAAAAAAAAAAAAAAAAAAAAAAAAAAAAAAAAAAAAAAAAAAAAAAAAAAAAAAAAAAAAAAAAAAAAAAAAAAAAAAAAAAAAAAAAAAAAAAAAAAAAAAAAAAAAAAAAAAAAAAAAAAAAAAAAAAAAAAAAAAAAAAAAAAAAAAAAAAAAAAAAAAAAAAAAAAAAAAAAAAAAAAAAAAAAAAAAAAAAAAAAAAAAAAAAAAAAAAAAAAAAAAAAAAAAAAAAAAAAAAAAAAAAAAAAAAAAAAAAAAAAAAAAAAAAAAAAAAAAAAAAAAAAAAAAAAAAAAAAAAAAAAAAAAAAAAAAAAAAAAAAAAAAAAAAAAAAAAAAAAAAAAAAAAAAAAAAAAAAAAAAAAAAAAAAAAAAAAAAAAAAAAAAAAAAAAAAAAAAAAAAAAAAAAAAAAAAAAAAAAAAAAAAAAAAAAAAAAAAAAAAAAAAAAAAAAAAAAAAAAAAAAAAAAAAAAAAAAAAAAAAAAAAAAAAAAAAAAAAAAAAAAAAAAAAAAAAAAAAAAAAAAAAAAAAAAAAAAAAAAAAAAAAAAAAAAAAAAAAAAAAAAAAAAAAAAAAAAAAAAAAAAAAAAAAAAAAAAAAAAAAAAAAAAAAAAAAAAAAAAAAAAAAAAAAAAAAAAAAAAAAAAAAAAAAAAAAAAAAAAAAAAAAAAAAAAAAAAAAAAAAAAAAAAAAAAAAAAAAAAAAAAAAAAAAAAAAAAAAAAAAAAAAAAAAAAAAAAAAAAAAAAAAAAAAAAAAAAAAAAAAAAAAAAAAAAAAAAAAAAAAAAAAAAAAAAAAAAAAAAAAAAAAAAAAAAAAAAAAAAAAAAAAAAAAAAAAAAAAAAAAAAAAAAAAAAAAAAAAAAAAAAAAAAAAAAAAAAAAAAAAAAAAAAAAAAAAAAAAAAAAAAAAAAAAAAAAAAAAAAAAAAAAAAAAAAAAAAAAAAAAAAAAAAAAAAAAAAAAAAAAAAAAAAAAAAAAAAAAAAAAAAAAAAAAAAAAAAAAAAAAAAAAAAAAAAAAAAAAAAAAAAAAAAAAAAAAAAAAAAAAAAAAAAAAAAAAAAAAAAAAAAAAAAAAAAAAAAAAAAAAAAAAAAAAAAAAAAAAAAAAAAAAAAAAAAAAAAAAAAAAAAAAAAAAAAAAAAAAAAAAAAAAAAAAAAAAAAAAAAAAAAAAAAAAAAAAAAAAAAAAAAAAAAAAAAAAAAAAAAAAAAAAAAAAAAAAAAAAAAAAAAAAAAAAAAAAAAAAAAAAAAAAAAAAAAAAAAAAAAAAAAAAAAAAAAAAAAAAAAAAAAAAAAAAAAAAAAAAAAAAAAAAAAAAAAAAAAAAAAAAAAAAAAAAAAAAAAAAAAAAAAAAAAAAAAAAAAAAAAAAAAAAAAAAAAAAAAAAAAAAAAAAAAAAAAAAAAAAAAAAAAAAAAAAAAAAAAAAAAAAAAAAAAAAAAAAAAAAAAAAAAAAAAAAAAAAAAAAAAAAAAAAAAAAAAAAAAAAAAAAAAAAAAAAAAAAAAAAAAAAAAAAAAAAAAAAAAAAAAAAAAAAAAAAAAAAAAAAAAAAAAAAAAAAAAAAAAAAAAAAAAAAAAAAAAAAAAAAAAAAAAAAAAAAAAAAAAAAAAAAAAAAAAAAAAAAAAAAAAAAAAAAAAAAAAAAAAAAAAAAAAAAAAAAAAAAAAAAAAAAAAAAAAAAAAAAAAAAAAAAAAAAAAAAAAAAAAAAAAAAAAAAAAAAAAAAAAAAAAAAAAAAAAAAAAAAAAAAAAAAAAAAAAAAAAAAAAAAAAAAAAAAAAAAAAAAAAAAAAAAAAAAAAAAAAAAAAAAAAAAAAAAAAAAAAAAAAAAAAAAAAAAAAAAAAAAAAAAAAAAAAAAAAAAAAAAAAAAAAAAAAAAAAAAAAAAAAAAAAAAAAAAAAAAAAAAAAAAAAAAAAAAAAAAAAAAAAAAAAAAAAAAAAAAAAAAAAAAAAAAAAAAAAAAAAAAAAAAAAAAAAAAAAAAAAAAAAAAAAAAAAAAAAAAAAAAAAAAAAAAAAAAAAAAAAAAAAAAAAAAAAAAAAAAAAAAAAAAAAAAAAAAAAAAAAAAAAAAAAAAAAAAAAAAAAAAAAAAAAAAAAAAAAAAAAAAAAAAAAAAAAAAAAAAAAAAAAAAAAAAAAAAAAAAAAAAAAAAAAAAAAAAAAAAAAAAAAAAAAAAAAAAAAAAAAAAAAAAAAAAAAAAAAAAAAAAAAAAAAAAAAAAAAAAAAAAAAAAAAAAAAAAAAAAAAAAAAAAAAAAAAAAAAAAAAAAAAAAAAAAAAAAAAAAAAAAAAAAAAAAAAAAAAAAAAAAAAAAAAAAAAAAAAAAAAAAAAAAAAAAAAAAAAAAAAAAAAAAAAAAAAAAAAAAAAAAAAAAAAAAAAAAAAAAAAAAAAAAAAAAAAAAAAAAAAAAAAAAAAAAAAAAAAAAAAAAAAAAAAAAAAAAAAAAAAAAAAAAAAAAAAAAAAAAAAAAAAAAAAAAAAAAAAAAAAAAAAAAAAAAAAAAAAAAAAAAAAAAAAAAAAAAAAAAAAAAAAAAAAAAAAAAAAAAAAAAAAAAAAAAAAAAAAAAAAAAAAAAAAAAAAAAAAAAAAAAAAAAAAAAAAAAAAAAAAAAAAAAAAAAAAAAAAAAAAAAAAAAAAAAAAAAAAAAAAAAAAAAAAAAAAAAAAAAAAAAAAAAAAAAAAAAAAAAAAAAAAAAAAAAAAAAAAAAAAAAAAAAAAAAAAAAAAAAAAAAAAAAAAAAAAAAAAAAAAAAAAAAAAAAAAAAAAAAAAAAAAAAAAAAAAAAAAAAAAAAAAAAAAAAAAAAAAAAAAAAAAAAAAAAAAAAAAAAAAAAAAAAAAAAAAAAAAAAAAAAAAAAAAAAAAAAAAAAAAAAAAAAAAAAAAAAAAAAAAAAAAAAAAAAAAAAAAAAAAAAAAAAAAAAAAAAAAAAAAAAAAAAAAAAAAAAAAAAAAAAAAAAAAAAAAAAAAAAAAAAAAAAAAAAAAAAAAAAAAAAAAAAAAAAAAAAAAAAAAAAAAAAAAAAAAAAAAAAAAAAAAAAAAAAAAAAAAAAAAAAAAAAAAAAAAAAAAAAAAAAAAAAAAAAAAAAAAAAAAAAAAAAAAAAAAAAAAAAAAAAAAAAAAAAAAAAAAAAAAAAAAAAAAAAAAAAAAAAAAAAAAAAAAAAAAAAAAAAAAAAAAAAAAAAAAAAAAAAAAAAAAAAAAAAAAAAAAAAAAAAAAAAAAAAAAAAAAAAAAAAAAAAAAAAAAAAAAAAAAAAAAAAAAAAAAAAAAAAAAAAAAAAAAAAAAAAAAAAAAAAAAAAAAAAAAAAAAAAAAAAAAAAAAAAAAAAAAAAAAAAAAAAAAAAAAAAAAAAAAAAAAAAAAAAAAAAAAAAAAAAAAAAAAAAAAAAAAAAAAAAAAAAAAAAAAAAAAAAAAAAAAAAAAAAAAAAAAAAAAAAAAAAAAAAAAAAAAAAAAAAAAAAAAAAAAAAAAAAAAAAAAAAAAAAAAAAAAAAAAAAAAAAAAAAAAAAAAAAAAAAAAAAAAAAAAAAAAAAAAAAAAAAAAAAAAAAAAAAAAAAAAAAAAAAAAAAAAAAAAAAAAAAAAAAAAAAAAAAAAAAAAAAAAAAAAAAAAAAAAAAAAAAAAAAAAAAAAAAAAAAAAAAAAAAAAAAAAAAAAAAAAAAAAAAAAAAAAAAAAAAAAAAAAAAAAAAAAAAAAAAAAAAAAAAAAAAAAAAAAAAAAAAAAAAAAAAAAAAAAAAAAAAAAAAAAAAAAAAAAAAAAAAAAAAAAAAAAAAAAAAAAAAAAAAAAAAAAAAAAAAAAAAAAAAAAAAAAAAAAAAAAAAAAAAAAAAAAAAAAAAAAAAAAAAAAAAAAAAAAAAAAAAAAAAAAAAAAAAAAAAAAAAAAAAAAAAAAAAAAAAAAAAAAAAAAAAAAAAAAAAAAAAAAAAAAAAAPZYQMSbR1JuHsdrgBZE8gtVYb/mhqmpPMrgyAl2ChPntFT+B+7IlOQJcW9NFouwQL85DHxFII2/rio2QNJbPGESiX4=</c2pa:manifest></metadata>
<g id="graph0" class="graph" transform="scale(1 1) rotate(0) translate(21.6 253.6)">
<title>pipeline</title>
<polygon fill="white" stroke="transparent" points="-21.6,21.6 -21.6,-253.6 1395.6,-253.6 1395.6,21.6 -21.6,21.6"/>
<text text-anchor="middle" x="687" y="-217.6" font-family="Noto Sans CJK KR" font-size="13.00">CAD → URDF → MJCF(MuJoCo) 파이프라인 &#160;(B1 모델링 · 시뮬레이션) &#160;&#160;&#160;&#160;&#160;실선 = 지금 (GPU 없이) &#160;&#160;&#160;점선 = 실습 PC 배정 후</text>
<!-- cad -->
<g id="node1" class="node">
<title>cad</title>
<path fill="#e8eef5" stroke="#5b6770" d="M199.5,-195C199.5,-195 31.5,-195 31.5,-195 25.5,-195 19.5,-189 19.5,-183 19.5,-183 19.5,-151 19.5,-151 19.5,-145 25.5,-139 31.5,-139 31.5,-139 199.5,-139 199.5,-139 205.5,-139 211.5,-145 211.5,-151 211.5,-151 211.5,-183 211.5,-183 211.5,-189 205.5,-195 199.5,-195"/>
<text text-anchor="middle" x="115.5" y="-182.2" font-family="Noto Sans CJK KR" font-size="11.00">① CAD (STEP)</text>
<text text-anchor="middle" x="115.5" y="-170.2" font-family="Noto Sans CJK KR" font-size="11.00">A팀 Inventor / SolidWorks</text>
<text text-anchor="middle" x="115.5" y="-158.2" font-family="Noto Sans CJK KR" font-size="11.00">양팔로봇 최종버전.stp · BASE 3.STEP</text>
<text text-anchor="middle" x="115.5" y="-146.2" font-family="Noto Sans CJK KR" font-size="11.00">단위 mm, AP214</text>
</g>
<!-- split -->
<g id="node2" class="node">
<title>split</title>
<path fill="#f4f6f8" stroke="#5b6770" d="M594,-195C594,-195 368,-195 368,-195 362,-195 356,-189 356,-183 356,-183 356,-151 356,-151 356,-145 362,-139 368,-139 368,-139 594,-139 594,-139 600,-139 606,-145 606,-151 606,-151 606,-183 606,-183 606,-189 600,-195 594,-195"/>
<text text-anchor="middle" x="481" y="-182.2" font-family="Noto Sans CJK KR" font-size="11.00">② 링크 분할 · 메시</text>
<text text-anchor="middle" x="481" y="-170.2" font-family="Noto Sans CJK KR" font-size="11.00">FreeCAD: 링크별 STL 내보내기 (mm→m ×0.001)</text>
<text text-anchor="middle" x="481" y="-158.2" font-family="Noto Sans CJK KR" font-size="11.00">visual(세밀) / collision(convex hull) 분리</text>
<text text-anchor="middle" x="481" y="-146.2" font-family="Noto Sans CJK KR" font-size="11.00">trimesh: watertight · 면 수 · 부피 검사</text>
</g>
<!-- cad&#45;&gt;split -->
<g id="edge1" class="edge">
<title>cad&#45;&gt;split</title>
<path fill="none" stroke="#5b6770" d="M211.53,-167C252.5,-167 301.15,-167 345.71,-167"/>
<polygon fill="#5b6770" stroke="#5b6770" points="345.74,-170.5 355.74,-167 345.74,-163.5 345.74,-170.5"/>
</g>
<!-- isaac -->
<g id="node8" class="node">
<title>isaac</title>
<path fill="#f4f4f4" stroke="#888888" stroke-dasharray="5,2" d="M219,-89C219,-89 12,-89 12,-89 6,-89 0,-83 0,-77 0,-77 0,-45 0,-45 0,-39 6,-33 12,-33 12,-33 219,-33 219,-33 225,-33 231,-39 231,-45 231,-45 231,-77 231,-77 231,-83 225,-89 219,-89"/>
<text text-anchor="middle" x="115.5" y="-76.2" font-family="Noto Sans CJK KR" font-size="11.00">⑧ Isaac Sim (실습 PC 배정 후)</text>
<text text-anchor="middle" x="115.5" y="-64.2" font-family="Noto Sans CJK KR" font-size="11.00">URDF Importer → USD 자동 생성</text>
<text text-anchor="middle" x="115.5" y="-52.2" font-family="Noto Sans CJK KR" font-size="11.00">fix base · merge fixed joints · self&#45;collision</text>
<text text-anchor="middle" x="115.5" y="-40.2" font-family="Noto Sans CJK KR" font-size="11.00">Drive stiffness = kp, damping = kv</text>
</g>
<!-- cad&#45;&gt;isaac -->
<!-- inert -->
<g id="node3" class="node">
<title>inert</title>
<path fill="#f4f6f8" stroke="#5b6770" d="M1024.5,-210C1024.5,-210 818.5,-210 818.5,-210 812.5,-210 806.5,-204 806.5,-198 806.5,-198 806.5,-154 806.5,-154 806.5,-148 812.5,-142 818.5,-142 818.5,-142 1024.5,-142 1024.5,-142 1030.5,-142 1036.5,-148 1036.5,-154 1036.5,-154 1036.5,-198 1036.5,-198 1036.5,-204 1030.5,-210 1024.5,-210"/>
<text text-anchor="middle" x="921.5" y="-197.2" font-family="Noto Sans CJK KR" font-size="11.00">③ 질량 · 관성 · 관절 축</text>
<text text-anchor="middle" x="921.5" y="-185.2" font-family="Noto Sans CJK KR" font-size="11.00">FreeCAD 재질(밀도) → 질량 · COM · 관성 텐서</text>
<text text-anchor="middle" x="921.5" y="-173.2" font-family="Noto Sans CJK KR" font-size="11.00">BOM 질량과 대조, 평행축 정리</text>
<text text-anchor="middle" x="921.5" y="-161.2" font-family="Noto Sans CJK KR" font-size="11.00">joint origin · axis = 부모 링크 프레임 기준</text>
<text text-anchor="middle" x="921.5" y="-149.2" font-family="Noto Sans CJK KR" font-size="11.00">구동기 사양 → effort · velocity · limit</text>
</g>
<!-- split&#45;&gt;inert -->
<g id="edge2" class="edge">
<title>split&#45;&gt;inert</title>
<path fill="none" stroke="#5b6770" d="M606.19,-169.55C665.68,-170.77 736.74,-172.23 796.24,-173.45"/>
<polygon fill="#5b6770" stroke="#5b6770" points="796.37,-176.95 806.44,-173.66 796.52,-169.95 796.37,-176.95"/>
</g>
<!-- verify -->
<g id="node7" class="node">
<title>verify</title>
<path fill="#e6f4ea" stroke="#2e7d32" d="M575.5,-89C575.5,-89 386.5,-89 386.5,-89 380.5,-89 374.5,-83 374.5,-77 374.5,-77 374.5,-45 374.5,-45 374.5,-39 380.5,-33 386.5,-33 386.5,-33 575.5,-33 575.5,-33 581.5,-33 587.5,-39 587.5,-45 587.5,-45 587.5,-77 587.5,-77 587.5,-83 581.5,-89 575.5,-89"/>
<text text-anchor="middle" x="481" y="-76.2" font-family="Noto Sans CJK KR" font-size="11.00">⑦ 검증 (MuJoCo)</text>
<text text-anchor="middle" x="481" y="-64.2" font-family="Noto Sans CJK KR" font-size="11.00">뷰어 자세 확인 · 자유 낙하 · 관절 범위 · 충돌</text>
<text text-anchor="middle" x="481" y="-52.2" font-family="Noto Sans CJK KR" font-size="11.00">계단 응답(kp · kv · armature) → 그래프</text>
<text text-anchor="middle" x="481" y="-40.2" font-family="Noto Sans CJK KR" font-size="11.00">B2(관절 제어) · B3(WBC) 에 모델 전달</text>
</g>
<!-- split&#45;&gt;verify -->
<!-- urdf -->
<g id="node4" class="node">
<title>urdf</title>
<path fill="#fff4dc" stroke="#b8860b" d="M1362,-207C1362,-207 1097,-207 1097,-207 1091,-207 1085,-201 1085,-195 1085,-195 1085,-151 1085,-151 1085,-145 1091,-139 1097,-139 1097,-139 1362,-139 1362,-139 1368,-139 1374,-145 1374,-151 1374,-151 1374,-195 1374,-195 1374,-201 1368,-207 1362,-207"/>
<text text-anchor="middle" x="1229.5" y="-194.2" font-family="Noto Sans CJK KR" font-size="11.00">④ URDF (단일 진실 공급원)</text>
<text text-anchor="middle" x="1229.5" y="-182.2" font-family="Noto Sans CJK KR" font-size="11.00">&lt;link&gt; visual · collision · inertial</text>
<text text-anchor="middle" x="1229.5" y="-170.2" font-family="Noto Sans CJK KR" font-size="11.00">&lt;joint&gt; origin · axis · limit · dynamics</text>
<text text-anchor="middle" x="1229.5" y="-158.2" font-family="Noto Sans CJK KR" font-size="11.00">+ &lt;mujoco&gt;&lt;compiler .../&gt;&lt;/mujoco&gt; 확장</text>
<text text-anchor="middle" x="1229.5" y="-146.2" font-family="Noto Sans CJK KR" font-size="11.00">(meshdir · fusestatic · discardvisual · balanceinertia)</text>
</g>
<!-- inert&#45;&gt;urdf -->
<g id="edge3" class="edge">
<title>inert&#45;&gt;urdf</title>
<path fill="none" stroke="#5b6770" d="M1036.88,-174.88C1049.2,-174.76 1061.88,-174.63 1074.57,-174.51"/>
<polygon fill="#5b6770" stroke="#5b6770" points="1074.78,-178.01 1084.74,-174.41 1074.71,-171.01 1074.78,-178.01"/>
</g>
<!-- mjcf -->
<g id="node6" class="node">
<title>mjcf</title>
<path fill="#fff4dc" stroke="#b8860b" d="M1036,-92C1036,-92 807,-92 807,-92 801,-92 795,-86 795,-80 795,-80 795,-12 795,-12 795,-6 801,0 807,0 807,0 1036,0 1036,0 1042,0 1048,-6 1048,-12 1048,-12 1048,-80 1048,-80 1048,-86 1042,-92 1036,-92"/>
<text text-anchor="middle" x="921.5" y="-79.2" font-family="Noto Sans CJK KR" font-size="11.00">⑥ MJCF 정리</text>
<text text-anchor="middle" x="921.5" y="-67.2" font-family="Noto Sans CJK KR" font-size="11.00">&lt;default class&gt;로 속성 재사용</text>
<text text-anchor="middle" x="921.5" y="-55.2" font-family="Noto Sans CJK KR" font-size="11.00">&lt;include&gt;로 팔 / scene 분리</text>
<text text-anchor="middle" x="921.5" y="-43.2" font-family="Noto Sans CJK KR" font-size="11.00">mjSpec.attach 로 팔 × 2 + 베이스 조립</text>
<text text-anchor="middle" x="921.5" y="-31.2" font-family="Noto Sans CJK KR" font-size="11.00">&lt;actuator&gt; position kp · kv · gear · forcerange</text>
<text text-anchor="middle" x="921.5" y="-19.2" font-family="Noto Sans CJK KR" font-size="11.00">joint armature · damping · frictionloss</text>
<text text-anchor="middle" x="921.5" y="-7.2" font-family="Noto Sans CJK KR" font-size="11.00">&lt;sensor&gt; jointpos · actuatorfrc</text>
</g>
<!-- inert&#45;&gt;mjcf -->
<!-- load -->
<g id="node5" class="node">
<title>load</title>
<path fill="#f4f6f8" stroke="#5b6770" d="M1319,-87C1319,-87 1140,-87 1140,-87 1134,-87 1128,-81 1128,-75 1128,-75 1128,-43 1128,-43 1128,-37 1134,-31 1140,-31 1140,-31 1319,-31 1319,-31 1325,-31 1331,-37 1331,-43 1331,-43 1331,-75 1331,-75 1331,-81 1325,-87 1319,-87"/>
<text text-anchor="middle" x="1229.5" y="-74.2" font-family="Noto Sans CJK KR" font-size="11.00">⑤ MuJoCo 로드 · 변환</text>
<text text-anchor="middle" x="1229.5" y="-62.2" font-family="Noto Sans CJK KR" font-size="11.00">MjModel.from_xml_path(urdf)</text>
<text text-anchor="middle" x="1229.5" y="-50.2" font-family="Noto Sans CJK KR" font-size="11.00">→ mj_saveLastXML → MJCF</text>
<text text-anchor="middle" x="1229.5" y="-38.2" font-family="Noto Sans CJK KR" font-size="11.00">(고정 베이스 vs freejoint, 자기 충돌 필터)</text>
</g>
<!-- urdf&#45;&gt;load -->
<g id="edge4" class="edge">
<title>urdf&#45;&gt;load</title>
<path fill="none" stroke="#5b6770" d="M1293.49,-138.76C1309.57,-123.68 1309.67,-108.6 1293.78,-93.52"/>
<polygon fill="#5b6770" stroke="#5b6770" points="1295.92,-90.75 1285.99,-87.05 1291.45,-96.13 1295.92,-90.75"/>
</g>
<!-- urdf&#45;&gt;load -->
<!-- load&#45;&gt;mjcf -->
<g id="edge5" class="edge">
<title>load&#45;&gt;mjcf</title>
<path fill="none" stroke="#5b6770" d="M1127.96,-54.73C1105.68,-53.78 1081.71,-52.76 1058.29,-51.77"/>
<polygon fill="#5b6770" stroke="#5b6770" points="1058.43,-48.27 1048.29,-51.34 1058.13,-55.27 1058.43,-48.27"/>
</g>
<!-- mjcf&#45;&gt;verify -->
<g id="edge6" class="edge">
<title>mjcf&#45;&gt;verify</title>
<path fill="none" stroke="#5b6770" d="M794.78,-50.3C732.68,-52.42 658.26,-54.97 597.59,-57.05"/>
<polygon fill="#5b6770" stroke="#5b6770" points="597.46,-53.55 587.59,-57.39 597.7,-60.54 597.46,-53.55"/>
</g>
<!-- verify&#45;&gt;inert -->
<g id="edge8" class="edge">
<title>verify&#45;&gt;inert</title>
<path fill="none" stroke="#2e7d32" d="M587.59,-88.69C650.38,-105.16 730.37,-126.14 796.2,-143.4"/>
<polygon fill="#2e7d32" stroke="#2e7d32" points="795.66,-146.88 806.22,-146.03 797.44,-140.11 795.66,-146.88"/>
<text text-anchor="middle" x="700.5" y="-137.4" font-family="Noto Sans CJK KR" font-size="9.50" fill="#2e7d32">실측 질량 · 관성 갱신 (A4 → B1, ICD)</text>
</g>
<!-- verify&#45;&gt;isaac -->
<g id="edge7" class="edge">
<title>verify&#45;&gt;isaac</title>
<path fill="none" stroke="#888888" stroke-dasharray="5,2" d="M374.4,-61C332.69,-61 284.46,-61 241.06,-61"/>
<polygon fill="#888888" stroke="#888888" points="241.01,-57.5 231.01,-61 241.01,-64.5 241.01,-57.5"/>
<text text-anchor="middle" x="293.5" y="-73.4" font-family="Noto Sans CJK KR" font-size="9.50">④ 의 URDF 를 그대로</text>
<text text-anchor="middle" x="293.5" y="-63.4" font-family="Noto Sans CJK KR" font-size="9.50">Importer 에 넣음</text>
</g>
</g>
</svg>
